# xmcd
# 
# Track frame offsets:
#     150
#     28670
#     45849
#     62540
#     80077
#     98067
#     117651
#     133691
#     153112
#     168990
#     185291
#     200974
#     212693
#     227337
#     246531
#     263710
#     278419
#     295240
#     312419
#     329956
#     346810
# 
# Disc length: 4792
# 
# Revision: 2
# Processed by: cddbd v1.5.2PL0 Copyright (c) Steve Scherf et al.
# Submitted via: BonkEnc v1.0
# 
DISCID=3412b615
DTITLE=Bruno e Marrone - DVD ao Vivo em Goiania
DYEAR=2006
DGENRE=Sertanejo
TTITLE0=Por Te Amar Demais
TTITLE1=Ve Se Toma Juizo
TTITLE2=Amor De Ping Pong
TTITLE3=Choro Choro
TTITLE4=Por Um Gole a Mais
TTITLE5=Marianne
TTITLE6=Doce Desejo
TTITLE7=Apenas Um Sorriso - Castigo - Fruto Especial
TTITLE8=Desiguais
TTITLE9=Que Pescar Que Nada
TTITLE10=Nao Posso Ter Medo de Amar
TTITLE11=Me Namora
TTITLE12=A Culpa e Sua
TTITLE13=Nao Tem Outro Jeito
TTITLE14=Ta Pegando
TTITLE15=Vai Curtir Vai Dancar
TTITLE16=O Sonho NAo Acabou
TTITLE17=Porque Choras
TTITLE18=Essa Historia Eu Conheco
TTITLE19=Quer Casar Comigo?
TTITLE20=Goias e Mais
EXTD=
EXTT0=
EXTT1=
EXTT2=
EXTT3=
EXTT4=
EXTT5=
EXTT6=
EXTT7=
EXTT8=
EXTT9=
EXTT10=
EXTT11=
EXTT12=
EXTT13=
EXTT14=
EXTT15=
EXTT16=
EXTT17=
EXTT18=
EXTT19=
EXTT20=
PLAYORDER=
